<svg width="737" height="180" viewBox="0 0 737 180" fill="none" xmlns="http://www.w3.org/2000/svg">
<path d="M180 35.0139V144.986C180 164.324 164.324 180 144.986 180H35.0139C15.6763 180 0 164.324 0 144.986V35.0139C0 15.6763 15.6763 0 35.0139 0H144.986C164.324 0 180 15.6763 180 35.0139ZM58.8281 120C65.4265 120 71.25 115.688 73.1753 109.377L73.8755 107.082C75.1592 102.875 79.0415 100 83.4404 100H111.999C118.597 100 124.421 95.6882 126.346 89.377L129.207 80H93.2563C86.6646 80 80.8452 84.3033 78.9143 90.6058L78.2024 92.9294C76.915 97.1312 73.0356 100 68.6411 100H45.321C38.7261 100 32.9045 104.308 30.9763 110.614L28.1069 120H58.8281ZM137.892 120H86.2625C79.6675 120 73.8462 124.308 71.918 130.614L69.0483 140H120.684C127.282 140 133.105 135.688 135.031 129.377L137.892 120ZM151.893 40H100.264C93.6689 40 87.8477 44.3076 85.9194 50.6144L85.2134 52.9237C83.928 57.1283 80.0471 60 75.6504 60H52.3218C45.7268 60 39.9053 64.3076 37.9771 70.6144L35.1077 80H65.8359C72.4309 80 78.2524 75.6924 80.1807 69.3856L80.8865 67.0763C82.1719 62.8717 86.053 60 90.4497 60H134.679C141.274 60 147.095 55.6924 149.023 49.3856L151.893 40ZM229.999 36.9993H305.19V59.0491H254.27V79.512H302.811V100.611H254.27V122.977H305.984V145.027H229.999V36.9993ZM321.05 93.9476C321.05 70.6292 336.12 56.511 359.914 56.511C383.55 56.511 398.779 70.6292 398.779 93.9476V145.027H375.936V95.3753C375.936 84.5882 370.225 77.1331 359.914 77.1331C349.762 77.1331 343.893 84.5882 343.893 95.3753V145.027H321.05V93.9476ZM416.7 156.131L435.577 145.185C440.177 153.276 447.157 157.082 456.834 157.082C470.635 157.082 479.518 148.675 479.518 135.667V128.212H479.2C474.283 137.095 463.814 142.964 451.281 142.964C429.073 142.964 413.845 125.198 413.845 100.769C413.845 75.7054 429.708 57.1458 453.185 57.1458C464.607 57.1458 473.807 61.428 479.359 69.9944H479.518V59.0491H502.361V134.399C502.361 160.255 483.96 176.753 457.151 176.753C438.591 176.753 425.266 170.408 416.7 156.131ZM479.994 100.927C479.994 87.2855 471.428 77.7669 458.261 77.7669C445.254 77.7669 436.688 87.761 436.688 100.927C436.688 113.935 445.571 123.452 458.261 123.452C471.269 123.452 479.994 114.57 479.994 100.927ZM517.427 38.5853C517.427 31.1302 522.979 25.8948 531.069 25.8948C539.159 25.8948 544.711 31.1302 544.711 38.5853C544.711 46.0413 539.159 51.4349 531.069 51.4349C522.979 51.4349 517.427 46.0413 517.427 38.5853ZM519.648 59.0491H542.49V145.027H519.648V59.0491ZM559.938 93.9476C559.938 70.6292 575.008 56.511 598.802 56.511C622.438 56.511 637.667 70.6292 637.667 93.9476V145.027H614.824V95.3753C614.824 84.5882 609.114 77.1331 598.802 77.1331C588.65 77.1331 582.781 84.5882 582.781 95.3753V145.027H559.938V93.9476ZM678.115 144.392L644.961 59.0491H670.183L690.171 118.218L710.634 59.0491H736.015L690.647 174.214H665.901L678.115 144.392Z" fill="#010101"/>
</svg>
