<svg xmlns="http://www.w3.org/2000/svg" version="1.1" xmlns:xlink="http://www.w3.org/1999/xlink" width="180" height="180"><svg xmlns="http://www.w3.org/2000/svg" version="1.1" xmlns:xlink="http://www.w3.org/1999/xlink" width="180" height="180"><svg width="180" height="180" viewBox="0 0 180 180" fill="none" xmlns="http://www.w3.org/2000/svg">
<rect width="180" height="180" rx="34" fill="#37E471"></rect>
<path d="M37.6963 70.5098C39.6349 64.169 45.4879 59.8381 52.1185 59.8381H75.5729C79.9933 59.8381 83.8952 56.9509 85.1876 52.7236L85.8974 50.4019C87.836 44.061 93.6888 39.7302 100.319 39.7302H152.227L149.342 49.1664C147.403 55.5073 141.551 59.8381 134.92 59.8381H90.452C86.0316 59.8381 82.1297 62.7254 80.8373 66.9526L80.1276 69.2743C78.189 75.6152 72.3361 79.946 65.7055 79.946H34.8115L37.6963 70.5098ZM27.7729 120.162H58.66C65.294 120.162 71.1488 115.827 73.0845 109.482L73.7885 107.174C75.079 102.944 78.9823 100.054 83.405 100.054H112.118C118.752 100.054 124.607 95.7189 126.542 89.3736L129.418 79.946H93.2737C86.6465 79.946 80.796 84.2726 78.8546 90.6091L78.1388 92.9453C76.8445 97.1696 72.944 100.054 68.5259 100.054H45.0799C38.4493 100.054 32.5966 104.385 30.658 110.726L27.7729 120.162ZM120.849 140.27C127.483 140.27 133.338 135.935 135.274 129.589L138.15 120.162H86.2423C79.6117 120.162 73.7589 124.493 71.8203 130.834L68.9353 140.27H120.849Z" fill="black"></path>
</svg></svg><style>@media (prefers-color-scheme: light) { :root { filter: none; } }
@media (prefers-color-scheme: dark) { :root { filter: none; } }
</style></svg>